<svg data-v-423bf9ae="" xmlns="http://www.w3.org/2000/svg" viewBox="0 0 468 90" class="iconLeft"><!----><!----><!----><g data-v-423bf9ae="" id="746841ab-4d25-434c-967a-175a06f1ffee" fill="white" transform="matrix(4.754358204761736,0,0,4.754358204761736,143.82247743253342,-4.255152112944053)"><path d="M6.79 14L6.79 14Q6.62 14 6.55 13.85L6.55 13.85L4.62 9.70L4.62 9.70Q4.59 9.65 4.54 9.65L4.54 9.65L2.56 9.65L2.56 9.65Q2.49 9.65 2.49 9.72L2.49 9.72L2.49 13.79L2.49 13.79Q2.49 13.89 2.44 13.94L2.44 13.94L2.44 13.94Q2.38 14 2.28 14L2.28 14L1.36 14L1.36 14Q1.26 14 1.20 13.94L1.20 13.94L1.20 13.94Q1.15 13.89 1.15 13.79L1.15 13.79L1.15 4.40L1.15 4.40Q1.15 4.30 1.20 4.24L1.20 4.24L1.20 4.24Q1.26 4.19 1.36 4.19L1.36 4.19L5.05 4.19L5.05 4.19Q5.89 4.19 6.53 4.54L6.53 4.54L6.53 4.54Q7.17 4.89 7.52 5.52L7.52 5.52L7.52 5.52Q7.87 6.15 7.87 6.97L7.87 6.97L7.87 6.97Q7.87 7.94 7.35 8.62L7.35 8.62L7.35 8.62Q6.83 9.30 5.95 9.53L5.95 9.53L5.95 9.53Q5.89 9.56 5.91 9.62L5.91 9.62L7.90 13.75L7.92 13.86L7.92 13.86Q7.92 14 7.74 14L7.74 14L6.79 14ZM2.56 5.35L2.56 5.35Q2.49 5.35 2.49 5.42L2.49 5.42L2.49 8.53L2.49 8.53Q2.49 8.60 2.56 8.60L2.56 8.60L4.89 8.60L4.89 8.60Q5.61 8.60 6.07 8.15L6.07 8.15L6.07 8.15Q6.52 7.70 6.52 6.99L6.52 6.99L6.52 6.99Q6.52 6.24 6.08 5.80L6.08 5.80L6.08 5.80Q5.63 5.35 4.89 5.35L4.89 5.35L2.56 5.35ZM12.18 6.76L12.18 6.76Q13.03 6.76 13.67 7.06L13.67 7.06L13.67 7.06Q14.31 7.36 14.65 7.90L14.65 7.90L14.65 7.90Q14.99 8.44 14.99 9.13L14.99 9.13L14.99 13.79L14.99 13.79Q14.99 13.89 14.94 13.94L14.94 13.94L14.94 13.94Q14.88 14 14.78 14L14.78 14L13.86 14L13.86 14Q13.76 14 13.71 13.94L13.71 13.94L13.71 13.94Q13.65 13.89 13.65 13.79L13.65 13.79L13.65 13.40L13.65 13.40Q13.65 13.36 13.62 13.34L13.62 13.34L13.62 13.34Q13.59 13.33 13.57 13.36L13.57 13.36L13.57 13.36Q13.17 13.72 12.64 13.92L12.64 13.92L12.64 13.92Q12.10 14.11 11.47 14.11L11.47 14.11L11.47 14.11Q10.44 14.11 9.79 13.59L9.79 13.59L9.79 13.59Q9.13 13.06 9.13 12.00L9.13 12.00L9.13 12.00Q9.13 10.91 9.89 10.28L9.89 10.28L9.89 10.28Q10.65 9.66 12.03 9.66L12.03 9.66L13.58 9.66L13.58 9.66Q13.65 9.66 13.65 9.59L13.65 9.59L13.65 9.23L13.65 9.23Q13.65 8.61 13.29 8.27L13.29 8.27L13.29 8.27Q12.94 7.92 12.21 7.92L12.21 7.92L12.21 7.92Q11.63 7.92 11.28 8.13L11.28 8.13L11.28 8.13Q10.92 8.34 10.81 8.72L10.81 8.72L10.81 8.72Q10.75 8.90 10.57 8.89L10.57 8.89L9.56 8.76L9.56 8.76Q9.46 8.75 9.41 8.70L9.41 8.70L9.41 8.70Q9.35 8.65 9.37 8.58L9.37 8.58L9.37 8.58Q9.49 7.78 10.27 7.27L10.27 7.27L10.27 7.27Q11.05 6.76 12.18 6.76L12.18 6.76ZM11.80 12.98L11.80 12.98Q12.54 12.98 13.10 12.59L13.10 12.59L13.10 12.59Q13.65 12.19 13.65 11.59L13.65 11.59L13.65 10.78L13.65 10.78Q13.65 10.71 13.58 10.71L13.58 10.71L12.28 10.71L12.28 10.71Q11.45 10.71 10.96 11.03L10.96 11.03L10.96 11.03Q10.47 11.35 10.47 11.93L10.47 11.93L10.47 11.93Q10.47 12.45 10.84 12.71L10.84 12.71L10.84 12.71Q11.21 12.98 11.80 12.98L11.80 12.98ZM22.58 8.67L22.58 8.67Q22.83 9.37 22.83 10.46L22.83 10.46L22.83 10.46Q22.83 11.48 22.62 12.15L22.62 12.15L22.62 12.15Q22.33 13.08 21.65 13.59L21.65 13.59L21.65 13.59Q20.97 14.11 19.94 14.11L19.94 14.11L19.94 14.11Q19.45 14.11 19.03 13.93L19.03 13.93L19.03 13.93Q18.62 13.75 18.31 13.40L18.31 13.40L18.31 13.40Q18.28 13.37 18.26 13.38L18.26 13.38L18.26 13.38Q18.23 13.38 18.23 13.43L18.23 13.43L18.23 16.46L18.23 16.46Q18.23 16.56 18.17 16.62L18.17 16.62L18.17 16.62Q18.12 16.67 18.02 16.67L18.02 16.67L17.09 16.67L17.09 16.67Q17.00 16.67 16.94 16.62L16.94 16.62L16.94 16.62Q16.88 16.56 16.88 16.46L16.88 16.46L16.88 7.08L16.88 7.08Q16.88 6.99 16.94 6.93L16.94 6.93L16.94 6.93Q17.00 6.87 17.09 6.87L17.09 6.87L18.02 6.87L18.02 6.87Q18.12 6.87 18.17 6.93L18.17 6.93L18.17 6.93Q18.23 6.99 18.23 7.08L18.23 7.08L18.23 7.45L18.23 7.45Q18.23 7.49 18.26 7.50L18.26 7.50L18.26 7.50Q18.28 7.52 18.31 7.49L18.31 7.49L18.31 7.49Q18.62 7.14 19.03 6.95L19.03 6.95L19.03 6.95Q19.45 6.76 19.94 6.76L19.94 6.76L19.94 6.76Q20.94 6.76 21.61 7.26L21.61 7.26L21.61 7.26Q22.27 7.76 22.58 8.67L22.58 8.67ZM21.04 12.28L21.04 12.28Q21.49 11.58 21.49 10.43L21.49 10.43L21.49 10.43Q21.49 9.35 21.14 8.69L21.14 8.69L21.14 8.69Q20.73 7.92 19.80 7.92L19.80 7.92L19.80 7.92Q19.00 7.92 18.58 8.68L18.58 8.68L18.58 8.68Q18.24 9.28 18.24 10.44L18.24 10.44L18.24 10.44Q18.24 11.59 18.61 12.24L18.61 12.24L18.61 12.24Q19.01 12.95 19.80 12.95L19.80 12.95L19.80 12.95Q20.61 12.95 21.04 12.28L21.04 12.28ZM25.31 5.81L25.31 5.81Q24.91 5.81 24.65 5.56L24.65 5.56L24.65 5.56Q24.39 5.32 24.39 4.93L24.39 4.93L24.39 4.93Q24.39 4.54 24.65 4.29L24.65 4.29L24.65 4.29Q24.91 4.05 25.31 4.05L25.31 4.05L25.31 4.05Q25.72 4.05 25.97 4.29L25.97 4.29L25.97 4.29Q26.22 4.54 26.22 4.93L26.22 4.93L26.22 4.93Q26.22 5.32 25.97 5.56L25.97 5.56L25.97 5.56Q25.72 5.81 25.31 5.81L25.31 5.81ZM24.85 14L24.85 14Q24.75 14 24.70 13.94L24.70 13.94L24.70 13.94Q24.64 13.89 24.64 13.79L24.64 13.79L24.64 7.08L24.64 7.08Q24.64 6.99 24.70 6.93L24.70 6.93L24.70 6.93Q24.75 6.87 24.85 6.87L24.85 6.87L25.77 6.87L25.77 6.87Q25.87 6.87 25.93 6.93L25.93 6.93L25.93 6.93Q25.98 6.99 25.98 7.08L25.98 7.08L25.98 13.79L25.98 13.79Q25.98 13.89 25.93 13.94L25.93 13.94L25.93 13.94Q25.87 14 25.77 14L25.77 14L24.85 14ZM32.38 4.41L32.38 4.41Q32.38 4.31 32.44 4.26L32.44 4.26L32.44 4.26Q32.49 4.20 32.59 4.20L32.59 4.20L33.52 4.20L33.52 4.20Q33.61 4.20 33.67 4.26L33.67 4.26L33.67 4.26Q33.73 4.31 33.73 4.41L33.73 4.41L33.73 13.79L33.73 13.79Q33.73 13.89 33.67 13.94L33.67 13.94L33.67 13.94Q33.61 14 33.52 14L33.52 14L32.59 14L32.59 14Q32.49 14 32.44 13.94L32.44 13.94L32.44 13.94Q32.38 13.89 32.38 13.79L32.38 13.79L32.38 13.43L32.38 13.43Q32.38 13.38 32.35 13.37L32.35 13.37L32.35 13.37Q32.33 13.36 32.30 13.38L32.30 13.38L32.30 13.38Q31.99 13.73 31.58 13.92L31.58 13.92L31.58 13.92Q31.16 14.11 30.67 14.11L30.67 14.11L30.67 14.11Q29.67 14.11 29.00 13.62L29.00 13.62L29.00 13.62Q28.34 13.12 28.03 12.21L28.03 12.21L28.03 12.21Q27.78 11.51 27.78 10.42L27.78 10.42L27.78 10.42Q27.78 9.39 27.99 8.72L27.99 8.72L27.99 8.72Q28.28 7.80 28.96 7.28L28.96 7.28L28.96 7.28Q29.64 6.76 30.67 6.76L30.67 6.76L30.67 6.76Q31.16 6.76 31.58 6.94L31.58 6.94L31.58 6.94Q31.99 7.13 32.30 7.48L32.30 7.48L32.30 7.48Q32.33 7.50 32.35 7.50L32.35 7.50L32.35 7.50Q32.38 7.49 32.38 7.45L32.38 7.45L32.38 4.41ZM32.03 12.19L32.03 12.19Q32.37 11.58 32.37 10.43L32.37 10.43L32.37 10.43Q32.37 9.28 32.00 8.64L32.00 8.64L32.00 8.64Q31.60 7.92 30.81 7.92L30.81 7.92L30.81 7.92Q30.00 7.92 29.57 8.60L29.57 8.60L29.57 8.60Q29.12 9.30 29.12 10.44L29.12 10.44L29.12 10.44Q29.12 11.52 29.47 12.18L29.47 12.18L29.47 12.18Q29.88 12.95 30.81 12.95L30.81 12.95L30.81 12.95Q31.61 12.95 32.03 12.19L32.03 12.19ZM44.67 14L44.67 14Q44.49 14 44.44 13.83L44.44 13.83L43.95 12.26L43.95 12.26Q43.92 12.21 43.88 12.21L43.88 12.21L39.97 12.21L39.97 12.21Q39.93 12.21 39.90 12.26L39.90 12.26L39.41 13.83L39.41 13.83Q39.35 14 39.17 14L39.17 14L38.18 14L38.18 14Q37.94 14 38.01 13.76L38.01 13.76L41.03 4.37L41.03 4.37Q41.09 4.20 41.27 4.20L41.27 4.20L42.56 4.20L42.56 4.20Q42.74 4.20 42.80 4.37L42.80 4.37L45.85 13.76L45.85 13.76Q45.86 13.79 45.86 13.85L45.86 13.85L45.86 13.85Q45.86 14 45.68 14L45.68 14L44.67 14ZM40.26 11.06L40.26 11.06Q40.25 11.14 40.32 11.14L40.32 11.14L43.53 11.14L43.53 11.14Q43.61 11.14 43.58 11.06L43.58 11.06L41.96 5.84L41.96 5.84Q41.94 5.78 41.92 5.78L41.92 5.78L41.92 5.78Q41.89 5.78 41.87 5.84L41.87 5.84L40.26 11.06ZM53.10 8.67L53.10 8.67Q53.35 9.37 53.35 10.46L53.35 10.46L53.35 10.46Q53.35 11.48 53.14 12.15L53.14 12.15L53.14 12.15Q52.85 13.08 52.17 13.59L52.17 13.59L52.17 13.59Q51.49 14.11 50.46 14.11L50.46 14.11L50.46 14.11Q49.97 14.11 49.55 13.93L49.55 13.93L49.55 13.93Q49.14 13.75 48.83 13.40L48.83 13.40L48.83 13.40Q48.80 13.37 48.78 13.38L48.78 13.38L48.78 13.38Q48.75 13.38 48.75 13.43L48.75 13.43L48.75 16.46L48.75 16.46Q48.75 16.56 48.69 16.62L48.69 16.62L48.69 16.62Q48.64 16.67 48.54 16.67L48.54 16.67L47.61 16.67L47.61 16.67Q47.52 16.67 47.46 16.62L47.46 16.62L47.46 16.62Q47.40 16.56 47.40 16.46L47.40 16.46L47.40 7.08L47.40 7.08Q47.40 6.99 47.46 6.93L47.46 6.93L47.46 6.93Q47.52 6.87 47.61 6.87L47.61 6.87L48.54 6.87L48.54 6.87Q48.64 6.87 48.69 6.93L48.69 6.93L48.69 6.93Q48.75 6.99 48.75 7.08L48.75 7.08L48.75 7.45L48.75 7.45Q48.75 7.49 48.78 7.50L48.78 7.50L48.78 7.50Q48.80 7.52 48.83 7.49L48.83 7.49L48.83 7.49Q49.14 7.14 49.55 6.95L49.55 6.95L49.55 6.95Q49.97 6.76 50.46 6.76L50.46 6.76L50.46 6.76Q51.46 6.76 52.13 7.26L52.13 7.26L52.13 7.26Q52.79 7.76 53.10 8.67L53.10 8.67ZM51.56 12.28L51.56 12.28Q52.01 11.58 52.01 10.43L52.01 10.43L52.01 10.43Q52.01 9.35 51.66 8.69L51.66 8.69L51.66 8.69Q51.25 7.92 50.32 7.92L50.32 7.92L50.32 7.92Q49.52 7.92 49.10 8.68L49.10 8.68L49.10 8.68Q48.76 9.28 48.76 10.44L48.76 10.44L48.76 10.44Q48.76 11.59 49.13 12.24L49.13 12.24L49.13 12.24Q49.53 12.95 50.32 12.95L50.32 12.95L50.32 12.95Q51.13 12.95 51.56 12.28L51.56 12.28ZM60.83 8.67L60.83 8.67Q61.08 9.37 61.08 10.46L61.08 10.46L61.08 10.46Q61.08 11.48 60.87 12.15L60.87 12.15L60.87 12.15Q60.58 13.08 59.90 13.59L59.90 13.59L59.90 13.59Q59.22 14.11 58.18 14.11L58.18 14.11L58.18 14.11Q57.69 14.11 57.28 13.93L57.28 13.93L57.28 13.93Q56.87 13.75 56.56 13.40L56.56 13.40L56.56 13.40Q56.53 13.37 56.50 13.38L56.50 13.38L56.50 13.38Q56.48 13.38 56.48 13.43L56.48 13.43L56.48 16.46L56.48 16.46Q56.48 16.56 56.42 16.62L56.42 16.62L56.42 16.62Q56.36 16.67 56.27 16.67L56.27 16.67L55.34 16.67L55.34 16.67Q55.24 16.67 55.19 16.62L55.19 16.62L55.19 16.62Q55.13 16.56 55.13 16.46L55.13 16.46L55.13 7.08L55.13 7.08Q55.13 6.99 55.19 6.93L55.19 6.93L55.19 6.93Q55.24 6.87 55.34 6.87L55.34 6.87L56.27 6.87L56.27 6.87Q56.36 6.87 56.42 6.93L56.42 6.93L56.42 6.93Q56.48 6.99 56.48 7.08L56.48 7.08L56.48 7.45L56.48 7.45Q56.48 7.49 56.50 7.50L56.50 7.50L56.50 7.50Q56.53 7.52 56.56 7.49L56.56 7.49L56.56 7.49Q56.87 7.14 57.28 6.95L57.28 6.95L57.28 6.95Q57.69 6.76 58.18 6.76L58.18 6.76L58.18 6.76Q59.19 6.76 59.86 7.26L59.86 7.26L59.86 7.26Q60.52 7.76 60.83 8.67L60.83 8.67ZM59.29 12.28L59.29 12.28Q59.74 11.58 59.74 10.43L59.74 10.43L59.74 10.43Q59.74 9.35 59.39 8.69L59.39 8.69L59.39 8.69Q58.98 7.92 58.04 7.92L58.04 7.92L58.04 7.92Q57.25 7.92 56.83 8.68L56.83 8.68L56.83 8.68Q56.49 9.28 56.49 10.44L56.49 10.44L56.49 10.44Q56.49 11.59 56.85 12.24L56.85 12.24L56.85 12.24Q57.26 12.95 58.04 12.95L58.04 12.95L58.04 12.95Q58.86 12.95 59.29 12.28L59.29 12.28ZM65.28 14.08L65.28 14.08Q64.46 14.08 63.82 13.83L63.82 13.83L63.82 13.83Q63.18 13.58 62.83 13.14L62.83 13.14L62.83 13.14Q62.48 12.70 62.48 12.17L62.48 12.17L62.48 12.08L62.48 12.08Q62.48 11.98 62.54 11.93L62.54 11.93L62.54 11.93Q62.59 11.87 62.69 11.87L62.69 11.87L63.56 11.87L63.56 11.87Q63.66 11.87 63.71 11.90L63.71 11.90L63.71 11.90Q63.77 11.93 63.77 11.97L63.77 11.97L63.77 12.08L63.77 12.08Q63.77 12.47 64.20 12.77L64.20 12.77L64.20 12.77Q64.62 13.06 65.27 13.06L65.27 13.06L65.27 13.06Q65.91 13.06 66.30 12.79L66.30 12.79L66.30 12.79Q66.70 12.52 66.70 12.10L66.70 12.10L66.70 12.10Q66.70 11.69 66.33 11.49L66.33 11.49L66.33 11.49Q65.97 11.28 65.16 11.06L65.16 11.06L65.16 11.06Q64.36 10.84 63.82 10.61L63.82 10.61L63.82 10.61Q63.28 10.37 62.91 9.95L62.91 9.95L62.91 9.95Q62.54 9.52 62.54 8.85L62.54 8.85L62.54 8.85Q62.54 7.91 63.27 7.36L63.27 7.36L63.27 7.36Q64.01 6.80 65.23 6.80L65.23 6.80L65.23 6.80Q66.04 6.80 66.66 7.06L66.66 7.06L66.66 7.06Q67.28 7.32 67.62 7.78L67.62 7.78L67.62 7.78Q67.96 8.25 67.96 8.82L67.96 8.82L67.96 8.82Q67.96 8.90 67.90 8.95L67.90 8.95L67.90 8.95Q67.84 9.00 67.75 9.00L67.75 9.00L66.91 9.00L66.91 9.00Q66.81 9.00 66.75 8.97L66.75 8.97L66.75 8.97Q66.70 8.95 66.70 8.90L66.70 8.90L66.70 8.82L66.70 8.82Q66.70 8.41 66.30 8.14L66.30 8.14L66.30 8.14Q65.90 7.87 65.21 7.87L65.21 7.87L65.21 7.87Q64.60 7.87 64.21 8.11L64.21 8.11L64.21 8.11Q63.83 8.34 63.83 8.75L63.83 8.75L63.83 8.75Q63.83 9.16 64.20 9.37L64.20 9.37L64.20 9.37Q64.57 9.58 65.39 9.81L65.39 9.81L65.39 9.81Q66.21 10.04 66.75 10.25L66.75 10.25L66.75 10.25Q67.28 10.47 67.66 10.90L67.66 10.90L67.66 10.90Q68.04 11.33 68.04 12.01L68.04 12.01L68.04 12.01Q68.04 12.96 67.29 13.52L67.29 13.52L67.29 13.52Q66.54 14.08 65.28 14.08L65.28 14.08Z"></path></g><!----><g data-v-423bf9ae="" id="fd883b13-5f3b-4385-bb11-4aa15bd30fe6" transform="matrix(1.35951636562449,0,0,1.35951636562449,-2.5437930622770466,-22.039874668202216)" stroke="none" fill="white"><switch><g><path d="M70.1 46.8h-2.4c-.2 0-.3-.2-.3-.3l.8-5.7c.2-1.5-1.7-2.3-2.6-1.1l-8.1 11.2c-.7 1 0 2.3 1.2 2.3H61c.2 0 .3.2.3.3l-.8 5.7c-.2 1.5 1.7 2.3 2.6 1.1l8.1-11.2c.8-1 .1-2.3-1.1-2.3z"></path><path d="M94.7 43.2l-6-.9c-.8-1.8-1-2.3-1.7-4.2l3.7-4.9c1-1.3.8-3.1-.3-4.3l-5-5c-1.2-1.2-3-1.3-4.3-.3l-4.9 3.7c-1.8-.8-2.3-1-4.2-1.7l-.9-6c-.2-1.6-1.6-2.8-3.2-2.8h-7c-1.6 0-3 1.2-3.2 2.8l-.9 6c-1.8.8-2.3 1-4.2 1.7l-4.9-3.7c-1.3-1-3.1-.8-4.3.3l-5 5c-1.2 1.2-1.3 3-.3 4.3l3.7 4.9c-.8 1.8-1 2.3-1.7 4.2l-6 .9c-1.6.2-2.8 1.6-2.8 3.2v7c0 1.6 1.2 3 2.8 3.2l6 .9c.8 1.8 1 2.3 1.7 4.2l-3.7 4.9c-1 1.3-.8 3.1.3 4.3l5 5c1.2 1.2 3 1.3 4.3.3l4.9-3.7c1.8.8 2.3 1 4.2 1.7l.9 6c.2 1.6 1.6 2.8 3.2 2.8h7c1.6 0 3-1.2 3.2-2.8l.9-6c1.8-.8 2.3-1 4.2-1.7l4.9 3.7c1.3 1 3.1.8 4.3-.3l5-5c1.2-1.2 1.3-3 .3-4.3L87 61.7c.8-1.8 1-2.3 1.7-4.1l6.1-.9c1.6-.2 2.8-1.6 2.8-3.2v-7c-.1-1.6-1.3-3-2.9-3.3zM64.4 65.5c-8.6 0-15.5-7-15.5-15.5 0-8.6 7-15.5 15.5-15.5s15.5 7 15.5 15.5c0 8.6-7 15.5-15.5 15.5zM26.9 30.9H12.2c-1.9 0-3.5 1.6-3.5 3.5s1.6 3.5 3.5 3.5h14.7c1.9 0 3.5-1.6 3.5-3.5s-1.5-3.5-3.5-3.5zM24.3 50c0-1.9-1.6-3.5-3.5-3.5H6c-1.9 0-3.5 1.6-3.5 3.5s1.6 3.5 3.5 3.5h14.7c2 0 3.6-1.6 3.6-3.5zM26.9 62H12.2c-1.9 0-3.5 1.6-3.5 3.5s1.6 3.5 3.5 3.5h14.7c1.9 0 3.5-1.6 3.5-3.5.1-1.9-1.5-3.5-3.5-3.5z"></path></g></switch></g><!----></svg>