<svg data-v-423bf9ae="" xmlns="http://www.w3.org/2000/svg" viewBox="0 0 500 90" class="iconLeftSlogan"><!----><!----><!----><g data-v-423bf9ae="" id="9cbd54b3-8b7f-4cb5-8c93-6e2572a19f74" fill="black" transform="matrix(4.285714577655423,0,0,4.285714577655423,143.93285720299588,-12.000000374657809)"><path d="M7.60 14L5.87 14L4.14 9.98L2.81 9.98L2.81 14L1.25 14L1.25 4.20L4.66 4.20L4.66 4.20Q5.89 4.20 6.73 4.75L6.73 4.75L6.73 4.75Q7.57 5.31 7.57 7.01L7.57 7.01L7.57 7.01Q7.57 9.39 5.75 9.86L5.75 9.86L7.60 14ZM2.81 5.53L2.81 8.65L4.70 8.65L4.70 8.65Q5.18 8.65 5.45 8.52L5.45 8.52L5.45 8.52Q5.73 8.39 5.86 8.03L5.86 8.03L5.86 8.03Q5.99 7.67 5.99 7.03L5.99 7.03L5.99 7.03Q5.99 6.20 5.67 5.87L5.67 5.87L5.67 5.87Q5.35 5.53 4.66 5.53L4.66 5.53L2.81 5.53ZM16.42 13.31L15.41 14.28L14.53 13.41L14.53 13.41Q13.61 14.15 12.31 14.15L12.31 14.15L12.31 14.15Q10.81 14.15 10.09 13.59L10.09 13.59L10.09 13.59Q9.38 13.03 9.38 11.86L9.38 11.86L9.38 11.86Q9.38 10.68 10.16 10.13L10.16 10.13L10.16 10.13Q10.93 9.58 12.59 9.58L12.59 9.58L14.01 9.58L14.01 9.21L14.01 9.21Q14.01 8.65 13.68 8.41L13.68 8.41L13.68 8.41Q13.34 8.16 12.59 8.16L12.59 8.16L12.59 8.16Q11.91 8.16 11.49 8.31L11.49 8.31L11.49 8.31Q11.06 8.46 10.79 8.76L10.79 8.76L9.79 7.78L9.79 7.78Q10.22 7.35 10.98 7.09L10.98 7.09L10.98 7.09Q11.73 6.83 12.70 6.83L12.70 6.83L12.70 6.83Q14.04 6.83 14.81 7.36L14.81 7.36L14.81 7.36Q15.58 7.88 15.58 8.85L15.58 8.85L15.58 12.47L16.42 13.31ZM10.93 11.86L10.93 11.86Q10.93 12.39 11.28 12.61L11.28 12.61L11.28 12.61Q11.63 12.84 12.54 12.84L12.54 12.84L12.54 12.84Q12.98 12.84 13.37 12.68L13.37 12.68L13.37 12.68Q13.76 12.53 14.01 12.29L14.01 12.29L14.01 10.82L13.06 10.82L13.06 10.82Q12.14 10.82 11.69 10.92L11.69 10.92L11.69 10.92Q11.24 11.02 11.09 11.23L11.09 11.23L11.09 11.23Q10.93 11.44 10.93 11.86L10.93 11.86ZM21.56 6.83L21.56 6.83Q22.93 6.83 23.63 7.73L23.63 7.73L23.63 7.73Q24.33 8.62 24.33 10.51L24.33 10.51L24.33 10.51Q24.33 12.38 23.58 13.27L23.58 13.27L23.58 13.27Q22.82 14.15 21.42 14.15L21.42 14.15L21.42 14.15Q20.20 14.15 19.52 13.31L19.52 13.31L19.52 16.80L17.95 16.80L17.95 7L19.10 7L19.49 7.92L19.49 7.92Q19.87 7.42 20.39 7.13L20.39 7.13L20.39 7.13Q20.92 6.83 21.56 6.83L21.56 6.83ZM21.06 12.81L21.06 12.81Q21.94 12.81 22.35 12.29L22.35 12.29L22.35 12.29Q22.76 11.77 22.76 10.51L22.76 10.51L22.76 10.51Q22.76 9.23 22.41 8.70L22.41 8.70L22.41 8.70Q22.06 8.18 21.20 8.18L21.20 8.18L21.20 8.18Q20.59 8.18 20.15 8.53L20.15 8.53L20.15 8.53Q19.70 8.88 19.52 9.35L19.52 9.35L19.52 11.83L19.52 11.83Q19.67 12.25 20.06 12.53L20.06 12.53L20.06 12.53Q20.45 12.81 21.06 12.81L21.06 12.81ZM29.50 5.46L29.50 5.46Q28.97 5.46 28.61 5.10L28.61 5.10L28.61 5.10Q28.25 4.75 28.25 4.23L28.25 4.23L28.25 4.23Q28.25 3.71 28.61 3.35L28.61 3.35L28.61 3.35Q28.97 3.00 29.50 3.00L29.50 3.00L29.50 3.00Q30.03 3.00 30.38 3.35L30.38 3.35L30.38 3.35Q30.73 3.70 30.73 4.23L30.73 4.23L30.73 4.23Q30.73 4.75 30.38 5.10L30.38 5.10L30.38 5.10Q30.03 5.46 29.50 5.46L29.50 5.46ZM30.31 12.67L32.21 12.67L32.21 14L28.74 14L28.74 8.33L26.40 8.33L26.40 7L30.31 7L30.31 12.67ZM39.13 2.80L40.70 2.80L40.70 14L39.47 14L39.20 13.20L39.20 13.20Q38.46 14.15 37.27 14.15L37.27 14.15L37.27 14.15Q35.85 14.15 35.08 13.25L35.08 13.25L35.08 13.25Q34.30 12.35 34.30 10.49L34.30 10.49L34.30 10.49Q34.30 8.61 35.01 7.73L35.01 7.73L35.01 7.73Q35.73 6.85 37.13 6.85L37.13 6.85L37.13 6.85Q37.74 6.85 38.26 7.08L38.26 7.08L38.26 7.08Q38.77 7.31 39.13 7.71L39.13 7.71L39.13 2.80ZM37.58 12.81L37.58 12.81Q38.15 12.81 38.56 12.47L38.56 12.47L38.56 12.47Q38.96 12.14 39.13 11.65L39.13 11.65L39.13 9.42L39.13 9.42Q38.91 8.92 38.48 8.55L38.48 8.55L38.48 8.55Q38.05 8.19 37.44 8.19L37.44 8.19L37.44 8.19Q36.55 8.19 36.21 8.71L36.21 8.71L36.21 8.71Q35.87 9.24 35.87 10.49L35.87 10.49L35.87 10.49Q35.87 11.70 36.27 12.26L36.27 12.26L36.27 12.26Q36.68 12.81 37.58 12.81L37.58 12.81ZM56.60 14L56 11.33L53.20 11.33L52.60 14L50.99 14L53.19 4.20L56.01 4.20L58.21 14L56.60 14ZM53.49 10.00L55.71 10.00L54.66 5.35L54.54 5.35L53.49 10.00ZM63.56 6.83L63.56 6.83Q64.93 6.83 65.63 7.73L65.63 7.73L65.63 7.73Q66.33 8.62 66.33 10.51L66.33 10.51L66.33 10.51Q66.33 12.38 65.58 13.27L65.58 13.27L65.58 13.27Q64.82 14.15 63.42 14.15L63.42 14.15L63.42 14.15Q62.20 14.15 61.52 13.31L61.52 13.31L61.52 16.80L59.95 16.80L59.95 7L61.10 7L61.49 7.92L61.49 7.92Q61.87 7.42 62.39 7.13L62.39 7.13L62.39 7.13Q62.92 6.83 63.56 6.83L63.56 6.83ZM63.06 12.81L63.06 12.81Q63.94 12.81 64.35 12.29L64.35 12.29L64.35 12.29Q64.76 11.77 64.76 10.51L64.76 10.51L64.76 10.51Q64.76 9.23 64.41 8.70L64.41 8.70L64.41 8.70Q64.06 8.18 63.20 8.18L63.20 8.18L63.20 8.18Q62.59 8.18 62.15 8.53L62.15 8.53L62.15 8.53Q61.70 8.88 61.52 9.35L61.52 9.35L61.52 11.83L61.52 11.83Q61.67 12.25 62.06 12.53L62.06 12.53L62.06 12.53Q62.45 12.81 63.06 12.81L63.06 12.81ZM71.96 6.83L71.96 6.83Q73.33 6.83 74.03 7.73L74.03 7.73L74.03 7.73Q74.73 8.62 74.73 10.51L74.73 10.51L74.73 10.51Q74.73 12.38 73.98 13.27L73.98 13.27L73.98 13.27Q73.22 14.15 71.82 14.15L71.82 14.15L71.82 14.15Q70.60 14.15 69.92 13.31L69.92 13.31L69.92 16.80L68.35 16.80L68.35 7L69.50 7L69.89 7.92L69.89 7.92Q70.27 7.42 70.79 7.13L70.79 7.13L70.79 7.13Q71.32 6.83 71.96 6.83L71.96 6.83ZM71.46 12.81L71.46 12.81Q72.34 12.81 72.75 12.29L72.75 12.29L72.75 12.29Q73.16 11.77 73.16 10.51L73.16 10.51L73.16 10.51Q73.16 9.23 72.81 8.70L72.81 8.70L72.81 8.70Q72.46 8.18 71.60 8.18L71.60 8.18L71.60 8.18Q70.99 8.18 70.55 8.53L70.55 8.53L70.55 8.53Q70.10 8.88 69.92 9.35L69.92 9.35L69.92 11.83L69.92 11.83Q70.07 12.25 70.46 12.53L70.46 12.53L70.46 12.53Q70.85 12.81 71.46 12.81L71.46 12.81ZM79.83 14.15L79.83 14.15Q78.82 14.15 77.92 13.83L77.92 13.83L77.92 13.83Q77.03 13.51 76.59 12.87L76.59 12.87L77.88 12.03L77.88 12.03Q78.09 12.39 78.68 12.61L78.68 12.61L78.68 12.61Q79.27 12.84 79.88 12.84L79.88 12.84L79.88 12.84Q80.53 12.84 80.97 12.64L80.97 12.64L80.97 12.64Q81.41 12.45 81.41 12.04L81.41 12.04L81.41 12.04Q81.41 11.75 81.14 11.55L81.14 11.55L81.14 11.55Q80.88 11.35 80.59 11.27L80.59 11.27L80.59 11.27Q80.30 11.19 79.77 11.05L79.77 11.05L79.77 11.05Q78.72 10.81 77.85 10.29L77.85 10.29L77.85 10.29Q76.99 9.77 76.99 8.76L76.99 8.76L76.99 8.76Q76.99 8.12 77.43 7.69L77.43 7.69L77.43 7.69Q77.88 7.25 78.56 7.04L78.56 7.04L78.56 7.04Q79.24 6.83 79.95 6.83L79.95 6.83L79.95 6.83Q80.81 6.83 81.59 7.15L81.59 7.15L81.59 7.15Q82.36 7.46 82.78 8.12L82.78 8.12L81.58 8.90L81.58 8.90Q81.34 8.53 80.86 8.33L80.86 8.33L80.86 8.33Q80.39 8.13 79.93 8.13L79.93 8.13L79.93 8.13Q79.39 8.13 78.98 8.32L78.98 8.32L78.98 8.32Q78.57 8.50 78.57 8.85L78.57 8.85L78.57 8.85Q78.57 9.17 78.95 9.35L78.95 9.35L78.95 9.35Q79.34 9.53 79.95 9.70L79.95 9.70L80.26 9.79L80.26 9.79Q80.99 9.98 81.54 10.20L81.54 10.20L81.54 10.20Q82.10 10.42 82.55 10.86L82.55 10.86L82.55 10.86Q83.01 11.31 83.01 12.00L83.01 12.00L83.01 12.00Q83.01 12.71 82.55 13.20L82.55 13.20L82.55 13.20Q82.10 13.69 81.38 13.92L81.38 13.92L81.38 13.92Q80.65 14.15 79.83 14.15L79.83 14.15Z"></path></g><!----><g data-v-423bf9ae="" id="8f1d1be9-29f5-4b3a-a2e6-8ffbc8423e17" transform="matrix(1.35951636562449,0,0,1.35951636562449,-2.5437930622770466,-22.039874668202216)" stroke="none" fill="black"><switch><g><path d="M70.1 46.8h-2.4c-.2 0-.3-.2-.3-.3l.8-5.7c.2-1.5-1.7-2.3-2.6-1.1l-8.1 11.2c-.7 1 0 2.3 1.2 2.3H61c.2 0 .3.2.3.3l-.8 5.7c-.2 1.5 1.7 2.3 2.6 1.1l8.1-11.2c.8-1 .1-2.3-1.1-2.3z"></path><path d="M94.7 43.2l-6-.9c-.8-1.8-1-2.3-1.7-4.2l3.7-4.9c1-1.3.8-3.1-.3-4.3l-5-5c-1.2-1.2-3-1.3-4.3-.3l-4.9 3.7c-1.8-.8-2.3-1-4.2-1.7l-.9-6c-.2-1.6-1.6-2.8-3.2-2.8h-7c-1.6 0-3 1.2-3.2 2.8l-.9 6c-1.8.8-2.3 1-4.2 1.7l-4.9-3.7c-1.3-1-3.1-.8-4.3.3l-5 5c-1.2 1.2-1.3 3-.3 4.3l3.7 4.9c-.8 1.8-1 2.3-1.7 4.2l-6 .9c-1.6.2-2.8 1.6-2.8 3.2v7c0 1.6 1.2 3 2.8 3.2l6 .9c.8 1.8 1 2.3 1.7 4.2l-3.7 4.9c-1 1.3-.8 3.1.3 4.3l5 5c1.2 1.2 3 1.3 4.3.3l4.9-3.7c1.8.8 2.3 1 4.2 1.7l.9 6c.2 1.6 1.6 2.8 3.2 2.8h7c1.6 0 3-1.2 3.2-2.8l.9-6c1.8-.8 2.3-1 4.2-1.7l4.9 3.7c1.3 1 3.1.8 4.3-.3l5-5c1.2-1.2 1.3-3 .3-4.3L87 61.7c.8-1.8 1-2.3 1.7-4.1l6.1-.9c1.6-.2 2.8-1.6 2.8-3.2v-7c-.1-1.6-1.3-3-2.9-3.3zM64.4 65.5c-8.6 0-15.5-7-15.5-15.5 0-8.6 7-15.5 15.5-15.5s15.5 7 15.5 15.5c0 8.6-7 15.5-15.5 15.5zM26.9 30.9H12.2c-1.9 0-3.5 1.6-3.5 3.5s1.6 3.5 3.5 3.5h14.7c1.9 0 3.5-1.6 3.5-3.5s-1.5-3.5-3.5-3.5zM24.3 50c0-1.9-1.6-3.5-3.5-3.5H6c-1.9 0-3.5 1.6-3.5 3.5s1.6 3.5 3.5 3.5h14.7c2 0 3.6-1.6 3.6-3.5zM26.9 62H12.2c-1.9 0-3.5 1.6-3.5 3.5s1.6 3.5 3.5 3.5h14.7c1.9 0 3.5-1.6 3.5-3.5.1-1.9-1.5-3.5-3.5-3.5z"></path></g></switch></g><!----><g data-v-423bf9ae="" id="1668b75c-fdca-4d8e-88e5-7621da512607" fill="black" transform="matrix(1.2411229330646585,0,0,1.2411229330646585,148.55774775022613,56.52485472692278)"><path d="M6.24 4.20L7.90 4.20L5.70 14L2.79 14L0.59 4.20L2.25 4.20L4.16 12.67L4.34 12.67L6.24 4.20ZM12.70 5.46L12.70 5.46Q12.17 5.46 11.81 5.10L11.81 5.10L11.81 5.10Q11.45 4.75 11.45 4.23L11.45 4.23L11.45 4.23Q11.45 3.71 11.81 3.35L11.81 3.35L11.81 3.35Q12.17 3.00 12.70 3.00L12.70 3.00L12.70 3.00Q13.23 3.00 13.58 3.35L13.58 3.35L13.58 3.35Q13.93 3.70 13.93 4.23L13.93 4.23L13.93 4.23Q13.93 4.75 13.58 5.10L13.58 5.10L13.58 5.10Q13.23 5.46 12.70 5.46L12.70 5.46ZM13.51 12.67L15.41 12.67L15.41 14L11.94 14L11.94 8.33L9.60 8.33L9.60 7L13.51 7L13.51 12.67ZM23.37 8.22L23.37 8.22Q22.69 8.22 22.22 8.53L22.22 8.53L22.22 8.53Q21.74 8.83 21.53 9.23L21.53 9.23L21.53 12.67L23.74 12.67L23.74 14L18.24 14L18.24 12.67L19.95 12.67L19.95 8.33L18.24 8.33L18.24 7L21.11 7L21.38 7.85L21.38 7.85Q21.76 7.36 22.33 7.10L22.33 7.10L22.33 7.10Q22.90 6.83 23.65 6.83L23.65 6.83L23.65 6.83Q24.32 6.83 24.85 7.10L24.85 7.10L24.39 8.44L24.39 8.44Q24.32 8.37 24.05 8.29L24.05 8.29L24.05 8.29Q23.77 8.22 23.37 8.22L23.37 8.22ZM32.10 8.33L29.64 8.33L29.64 11.83L29.64 11.83Q29.64 12.45 29.83 12.67L29.83 12.67L29.83 12.67Q30.03 12.89 30.39 12.89L30.39 12.89L30.39 12.89Q30.86 12.89 31.67 12.71L31.67 12.71L31.67 14L31.67 14Q31.63 14 31.25 14.08L31.25 14.08L31.25 14.08Q30.87 14.15 30.10 14.15L30.10 14.15L30.10 14.15Q28.07 14.15 28.07 12.29L28.07 12.29L28.07 8.33L26.11 8.33L26.11 7L28.07 7L28.07 4.48L29.64 4.48L29.64 7L32.10 7L32.10 8.33ZM40.84 14L39.52 14L39.37 13.22L39.37 13.22Q39.00 13.66 38.46 13.90L38.46 13.90L38.46 13.90Q37.91 14.14 37.21 14.14L37.21 14.14L37.21 14.14Q35.94 14.14 35.31 13.38L35.31 13.38L35.31 13.38Q34.68 12.61 34.68 10.93L34.68 10.93L34.68 6.99L36.25 6.99L36.25 10.51L36.25 10.51Q36.25 11.34 36.34 11.82L36.34 11.82L36.34 11.82Q36.44 12.31 36.72 12.55L36.72 12.55L36.72 12.55Q37.00 12.80 37.55 12.80L37.55 12.80L37.55 12.80Q38.16 12.80 38.58 12.52L38.58 12.52L38.58 12.52Q39.00 12.24 39.24 11.83L39.24 11.83L39.24 6.99L40.82 6.99L40.82 12.59L40.84 14ZM50.02 13.31L49.01 14.28L48.13 13.41L48.13 13.41Q47.21 14.15 45.91 14.15L45.91 14.15L45.91 14.15Q44.41 14.15 43.69 13.59L43.69 13.59L43.69 13.59Q42.98 13.03 42.98 11.86L42.98 11.86L42.98 11.86Q42.98 10.68 43.76 10.13L43.76 10.13L43.76 10.13Q44.53 9.58 46.19 9.58L46.19 9.58L47.61 9.58L47.61 9.21L47.61 9.21Q47.61 8.65 47.28 8.41L47.28 8.41L47.28 8.41Q46.94 8.16 46.19 8.16L46.19 8.16L46.19 8.16Q45.51 8.16 45.09 8.31L45.09 8.31L45.09 8.31Q44.66 8.46 44.39 8.76L44.39 8.76L43.39 7.78L43.39 7.78Q43.82 7.35 44.58 7.09L44.58 7.09L44.58 7.09Q45.33 6.83 46.30 6.83L46.30 6.83L46.30 6.83Q47.64 6.83 48.41 7.36L48.41 7.36L48.41 7.36Q49.18 7.88 49.18 8.85L49.18 8.85L49.18 12.47L50.02 13.31ZM44.53 11.86L44.53 11.86Q44.53 12.39 44.88 12.61L44.88 12.61L44.88 12.61Q45.23 12.84 46.14 12.84L46.14 12.84L46.14 12.84Q46.58 12.84 46.97 12.68L46.97 12.68L46.97 12.68Q47.36 12.53 47.61 12.29L47.61 12.29L47.61 10.82L46.66 10.82L46.66 10.82Q45.74 10.82 45.29 10.92L45.29 10.92L45.29 10.92Q44.84 11.02 44.69 11.23L44.69 11.23L44.69 11.23Q44.53 11.44 44.53 11.86L44.53 11.86ZM56.24 12.89L56.24 12.89Q56.55 12.89 57.01 12.82L57.01 12.82L57.01 12.82Q57.47 12.75 57.68 12.71L57.68 12.71L57.68 14L57.68 14Q56.76 14.15 55.94 14.15L55.94 14.15L55.94 14.15Q53.76 14.15 53.76 12.29L53.76 12.29L53.76 4.13L51.63 4.13L51.63 2.80L55.33 2.80L55.33 11.87L55.33 11.87Q55.33 12.50 55.59 12.70L55.59 12.70L55.59 12.70Q55.85 12.89 56.24 12.89L56.24 12.89ZM71.33 4.20L71.33 4.20Q72.41 4.20 73.17 4.45L73.17 4.45L73.17 4.45Q73.93 4.69 74.52 5.77L74.52 5.77L74.52 5.77Q75.11 6.85 75.11 9.10L75.11 9.10L75.11 9.10Q75.11 11.35 74.52 12.43L74.52 12.43L74.52 12.43Q73.93 13.51 73.17 13.76L73.17 13.76L73.17 13.76Q72.41 14 71.33 14L71.33 14L68.57 14L68.57 4.20L71.33 4.20ZM71.37 12.67L71.37 12.67Q72.18 12.67 72.63 12.36L72.63 12.36L72.63 12.36Q73.08 12.05 73.28 11.29L73.28 11.29L73.28 11.29Q73.49 10.53 73.49 9.10L73.49 9.10L73.49 9.10Q73.49 7.67 73.28 6.91L73.28 6.91L73.28 6.91Q73.08 6.15 72.63 5.84L72.63 5.84L72.63 5.84Q72.18 5.53 71.37 5.53L71.37 5.53L70.14 5.53L70.14 12.67L71.37 12.67ZM80.18 6.83L80.18 6.83Q81.68 6.83 82.47 7.82L82.47 7.82L82.47 7.82Q83.27 8.81 83.27 10.51L83.27 10.51L83.27 10.51Q83.27 10.81 83.26 10.95L83.26 10.95L78.44 10.95L78.44 10.95Q78.51 11.96 78.95 12.38L78.95 12.38L78.95 12.38Q79.39 12.81 80.15 12.81L80.15 12.81L80.15 12.81Q81.20 12.81 81.73 11.94L81.73 11.94L83.06 12.67L83.06 12.67Q82.60 13.41 81.82 13.78L81.82 13.78L81.82 13.78Q81.03 14.15 80.14 14.15L80.14 14.15L80.14 14.15Q79.21 14.15 78.46 13.76L78.46 13.76L78.46 13.76Q77.71 13.37 77.27 12.54L77.27 12.54L77.27 12.54Q76.83 11.72 76.83 10.49L76.83 10.49L76.83 10.49Q76.83 9.24 77.28 8.42L77.28 8.42L77.28 8.42Q77.73 7.60 78.48 7.22L78.48 7.22L78.48 7.22Q79.24 6.83 80.18 6.83L80.18 6.83ZM78.48 9.74L81.68 9.74L81.68 9.74Q81.61 8.96 81.24 8.56L81.24 8.56L81.24 8.56Q80.86 8.16 80.15 8.16L80.15 8.16L80.15 8.16Q79.48 8.16 79.04 8.53L79.04 8.53L79.04 8.53Q78.61 8.89 78.48 9.74L78.48 9.74ZM89.59 7L91.22 7L89.52 14L86.94 14L85.23 7L86.87 7L88.09 12.67L88.37 12.67L89.59 7ZM96.98 6.83L96.98 6.83Q98.48 6.83 99.27 7.82L99.27 7.82L99.27 7.82Q100.07 8.81 100.07 10.51L100.07 10.51L100.07 10.51Q100.07 10.81 100.06 10.95L100.06 10.95L95.24 10.95L95.24 10.95Q95.31 11.96 95.75 12.38L95.75 12.38L95.75 12.38Q96.19 12.81 96.95 12.81L96.95 12.81L96.95 12.81Q98.00 12.81 98.53 11.94L98.53 11.94L99.86 12.67L99.86 12.67Q99.40 13.41 98.62 13.78L98.62 13.78L98.62 13.78Q97.83 14.15 96.94 14.15L96.94 14.15L96.94 14.15Q96.01 14.15 95.26 13.76L95.26 13.76L95.26 13.76Q94.51 13.37 94.07 12.54L94.07 12.54L94.07 12.54Q93.63 11.72 93.63 10.49L93.63 10.49L93.63 10.49Q93.63 9.24 94.08 8.42L94.08 8.42L94.08 8.42Q94.53 7.60 95.28 7.22L95.28 7.22L95.28 7.22Q96.04 6.83 96.98 6.83L96.98 6.83ZM95.28 9.74L98.48 9.74L98.48 9.74Q98.41 8.96 98.04 8.56L98.04 8.56L98.04 8.56Q97.66 8.16 96.95 8.16L96.95 8.16L96.95 8.16Q96.28 8.16 95.84 8.53L95.84 8.53L95.84 8.53Q95.41 8.89 95.28 9.74L95.28 9.74ZM106.64 12.89L106.64 12.89Q106.95 12.89 107.41 12.82L107.41 12.82L107.41 12.82Q107.87 12.75 108.08 12.71L108.08 12.71L108.08 14L108.08 14Q107.16 14.15 106.34 14.15L106.34 14.15L106.34 14.15Q104.16 14.15 104.16 12.29L104.16 12.29L104.16 4.13L102.03 4.13L102.03 2.80L105.73 2.80L105.73 11.87L105.73 11.87Q105.73 12.50 105.99 12.70L105.99 12.70L105.99 12.70Q106.25 12.89 106.64 12.89L106.64 12.89ZM113.44 14.15L113.44 14.15Q112.03 14.15 111.09 13.27L111.09 13.27L111.09 13.27Q110.15 12.38 110.15 10.49L110.15 10.49L110.15 10.49Q110.15 9.21 110.61 8.39L110.61 8.39L110.61 8.39Q111.06 7.57 111.80 7.20L111.80 7.20L111.80 7.20Q112.55 6.83 113.44 6.83L113.44 6.83L113.44 6.83Q114.34 6.83 115.07 7.20L115.07 7.20L115.07 7.20Q115.81 7.57 116.26 8.39L116.26 8.39L116.26 8.39Q116.72 9.21 116.72 10.49L116.72 10.49L116.72 10.49Q116.72 11.77 116.26 12.59L116.26 12.59L116.26 12.59Q115.81 13.41 115.07 13.78L115.07 13.78L115.07 13.78Q114.34 14.15 113.44 14.15L113.44 14.15ZM113.44 12.81L113.44 12.81Q114.10 12.81 114.58 12.27L114.58 12.27L114.58 12.27Q115.07 11.73 115.07 10.49L115.07 10.49L115.07 10.49Q115.07 9.25 114.58 8.71L114.58 8.71L114.58 8.71Q114.10 8.18 113.44 8.18L113.44 8.18L113.44 8.18Q112.77 8.18 112.29 8.71L112.29 8.71L112.29 8.71Q111.80 9.24 111.80 10.49L111.80 10.49L111.80 10.49Q111.80 11.73 112.29 12.27L112.29 12.27L112.29 12.27Q112.77 12.81 113.44 12.81L113.44 12.81ZM122.36 6.83L122.36 6.83Q123.73 6.83 124.43 7.73L124.43 7.73L124.43 7.73Q125.13 8.62 125.13 10.51L125.13 10.51L125.13 10.51Q125.13 12.38 124.38 13.27L124.38 13.27L124.38 13.27Q123.62 14.15 122.22 14.15L122.22 14.15L122.22 14.15Q121.00 14.15 120.32 13.31L120.32 13.31L120.32 16.80L118.75 16.80L118.75 7L119.90 7L120.29 7.92L120.29 7.92Q120.67 7.42 121.19 7.13L121.19 7.13L121.19 7.13Q121.72 6.83 122.36 6.83L122.36 6.83ZM121.86 12.81L121.86 12.81Q122.74 12.81 123.15 12.29L123.15 12.29L123.15 12.29Q123.56 11.77 123.56 10.51L123.56 10.51L123.56 10.51Q123.56 9.23 123.21 8.70L123.21 8.70L123.21 8.70Q122.86 8.18 122.00 8.18L122.00 8.18L122.00 8.18Q121.39 8.18 120.95 8.53L120.95 8.53L120.95 8.53Q120.50 8.88 120.32 9.35L120.32 9.35L120.32 11.83L120.32 11.83Q120.47 12.25 120.86 12.53L120.86 12.53L120.86 12.53Q121.25 12.81 121.86 12.81L121.86 12.81ZM132.54 6.85L132.54 6.85Q133.06 6.85 133.41 7.05L133.41 7.05L133.41 7.05Q133.77 7.25 133.98 7.83L133.98 7.83L133.98 7.83Q134.19 8.40 134.19 9.49L134.19 9.49L134.19 14L132.69 14L132.69 9.91L132.69 9.91Q132.69 9.20 132.64 8.83L132.64 8.83L132.64 8.83Q132.58 8.47 132.45 8.33L132.45 8.33L132.45 8.33Q132.33 8.19 132.06 8.19L132.06 8.19L132.06 8.19Q131.78 8.19 131.47 8.43L131.47 8.43L131.47 8.43Q131.17 8.68 131.04 8.99L131.04 8.99L131.04 9.00L131.04 14L129.64 14L129.64 9.91L129.64 9.91Q129.64 9.21 129.58 8.84L129.58 8.84L129.58 8.84Q129.53 8.47 129.39 8.33L129.39 8.33L129.39 8.33Q129.25 8.19 129.00 8.19L129.00 8.19L129.00 8.19Q128.73 8.19 128.42 8.44L128.42 8.44L128.42 8.44Q128.11 8.69 127.99 9.02L127.99 9.02L127.99 14L126.49 14L126.49 9.17L126.49 7L127.60 7L127.82 7.80L127.82 7.80Q128.11 7.35 128.52 7.10L128.52 7.10L128.52 7.10Q128.93 6.85 129.39 6.85L129.39 6.85L129.39 6.85Q129.92 6.85 130.31 7.10L130.31 7.10L130.31 7.10Q130.70 7.36 130.87 7.88L130.87 7.88L130.87 7.88Q131.18 7.39 131.61 7.12L131.61 7.12L131.61 7.12Q132.05 6.85 132.54 6.85L132.54 6.85ZM138.98 6.83L138.98 6.83Q140.48 6.83 141.27 7.82L141.27 7.82L141.27 7.82Q142.07 8.81 142.07 10.51L142.07 10.51L142.07 10.51Q142.07 10.81 142.06 10.95L142.06 10.95L137.24 10.95L137.24 10.95Q137.31 11.96 137.75 12.38L137.75 12.38L137.75 12.38Q138.19 12.81 138.95 12.81L138.95 12.81L138.95 12.81Q140.00 12.81 140.53 11.94L140.53 11.94L141.86 12.67L141.86 12.67Q141.40 13.41 140.62 13.78L140.62 13.78L140.62 13.78Q139.83 14.15 138.94 14.15L138.94 14.15L138.94 14.15Q138.01 14.15 137.26 13.76L137.26 13.76L137.26 13.76Q136.51 13.37 136.07 12.54L136.07 12.54L136.07 12.54Q135.63 11.72 135.63 10.49L135.63 10.49L135.63 10.49Q135.63 9.24 136.08 8.42L136.08 8.42L136.08 8.42Q136.53 7.60 137.28 7.22L137.28 7.22L137.28 7.22Q138.04 6.83 138.98 6.83L138.98 6.83ZM137.28 9.74L140.48 9.74L140.48 9.74Q140.41 8.96 140.04 8.56L140.04 8.56L140.04 8.56Q139.66 8.16 138.95 8.16L138.95 8.16L138.95 8.16Q138.28 8.16 137.84 8.53L137.84 8.53L137.84 8.53Q137.41 8.89 137.28 9.74L137.28 9.74ZM147.70 6.85L147.70 6.85Q148.95 6.85 149.60 7.62L149.60 7.62L149.60 7.62Q150.26 8.39 150.26 10.05L150.26 10.05L150.26 14L148.69 14L148.69 10.33L148.69 10.33Q148.69 9.53 148.60 9.09L148.60 9.09L148.60 9.09Q148.51 8.64 148.24 8.41L148.24 8.41L148.24 8.41Q147.97 8.19 147.42 8.19L147.42 8.19L147.42 8.19Q146.76 8.19 146.33 8.54L146.33 8.54L146.33 8.54Q145.89 8.89 145.67 9.34L145.67 9.34L145.67 14L144.10 14L144.10 9.17L144.10 7L145.26 7L145.26 7Q145.29 7.07 145.36 7.31L145.36 7.31L145.36 7.31Q145.42 7.55 145.52 7.84L145.52 7.84L145.52 7.84Q145.88 7.36 146.43 7.10L146.43 7.10L146.43 7.10Q146.99 6.85 147.70 6.85L147.70 6.85ZM158.10 8.33L155.64 8.33L155.64 11.83L155.64 11.83Q155.64 12.45 155.83 12.67L155.83 12.67L155.83 12.67Q156.03 12.89 156.39 12.89L156.39 12.89L156.39 12.89Q156.86 12.89 157.67 12.71L157.67 12.71L157.67 14L157.67 14Q157.63 14 157.25 14.08L157.25 14.08L157.25 14.08Q156.87 14.15 156.10 14.15L156.10 14.15L156.10 14.15Q154.07 14.15 154.07 12.29L154.07 12.29L154.07 8.33L152.11 8.33L152.11 7L154.07 7L154.07 4.48L155.64 4.48L155.64 7L158.10 7L158.10 8.33ZM172.65 10.68L171.08 10.68L171.08 14L169.51 14L169.51 4.20L172.65 4.20L172.65 4.20Q173.47 4.20 174.15 4.39L174.15 4.39L174.15 4.39Q174.82 4.58 175.33 5.26L175.33 5.26L175.33 5.26Q175.84 5.94 175.84 7.29L175.84 7.29L175.84 7.29Q175.84 9.35 174.90 10.02L174.90 10.02L174.90 10.02Q173.95 10.68 172.65 10.68L172.65 10.68ZM171.08 5.53L171.08 9.35L172.65 9.35L172.65 9.35Q173.18 9.35 173.52 9.22L173.52 9.22L173.52 9.22Q173.85 9.09 174.06 8.64L174.06 8.64L174.06 8.64Q174.26 8.20 174.26 7.34L174.26 7.34L174.26 7.34Q174.26 6.54 174.06 6.15L174.06 6.15L174.06 6.15Q173.85 5.75 173.52 5.64L173.52 5.64L173.52 5.64Q173.19 5.53 172.65 5.53L172.65 5.53L171.08 5.53ZM184.42 13.31L183.41 14.28L182.53 13.41L182.53 13.41Q181.61 14.15 180.31 14.15L180.31 14.15L180.31 14.15Q178.81 14.15 178.09 13.59L178.09 13.59L178.09 13.59Q177.38 13.03 177.38 11.86L177.38 11.86L177.38 11.86Q177.38 10.68 178.16 10.13L178.16 10.13L178.16 10.13Q178.93 9.58 180.59 9.58L180.59 9.58L182.01 9.58L182.01 9.21L182.01 9.21Q182.01 8.65 181.68 8.41L181.68 8.41L181.68 8.41Q181.34 8.16 180.59 8.16L180.59 8.16L180.59 8.16Q179.91 8.16 179.49 8.31L179.49 8.31L179.49 8.31Q179.06 8.46 178.79 8.76L178.79 8.76L177.79 7.78L177.79 7.78Q178.22 7.35 178.98 7.09L178.98 7.09L178.98 7.09Q179.73 6.83 180.70 6.83L180.70 6.83L180.70 6.83Q182.04 6.83 182.81 7.36L182.81 7.36L182.81 7.36Q183.58 7.88 183.58 8.85L183.58 8.85L183.58 12.47L184.42 13.31ZM178.93 11.86L178.93 11.86Q178.93 12.39 179.28 12.61L179.28 12.61L179.28 12.61Q179.63 12.84 180.54 12.84L180.54 12.84L180.54 12.84Q180.98 12.84 181.37 12.68L181.37 12.68L181.37 12.68Q181.76 12.53 182.01 12.29L182.01 12.29L182.01 10.82L181.06 10.82L181.06 10.82Q180.14 10.82 179.69 10.92L179.69 10.92L179.69 10.92Q179.24 11.02 179.09 11.23L179.09 11.23L179.09 11.23Q178.93 11.44 178.93 11.86L178.93 11.86ZM191.37 8.22L191.37 8.22Q190.69 8.22 190.22 8.53L190.22 8.53L190.22 8.53Q189.74 8.83 189.53 9.23L189.53 9.23L189.53 12.67L191.74 12.67L191.74 14L186.24 14L186.24 12.67L187.95 12.67L187.95 8.33L186.24 8.33L186.24 7L189.11 7L189.38 7.85L189.38 7.85Q189.76 7.36 190.33 7.10L190.33 7.10L190.33 7.10Q190.90 6.83 191.65 6.83L191.65 6.83L191.65 6.83Q192.32 6.83 192.85 7.10L192.85 7.10L192.39 8.44L192.39 8.44Q192.32 8.37 192.05 8.29L192.05 8.29L192.05 8.29Q191.77 8.22 191.37 8.22L191.37 8.22ZM200.10 8.33L197.64 8.33L197.64 11.83L197.64 11.83Q197.64 12.45 197.83 12.67L197.83 12.67L197.83 12.67Q198.03 12.89 198.39 12.89L198.39 12.89L198.39 12.89Q198.86 12.89 199.67 12.71L199.67 12.71L199.67 14L199.67 14Q199.63 14 199.25 14.08L199.25 14.08L199.25 14.08Q198.87 14.15 198.10 14.15L198.10 14.15L198.10 14.15Q196.07 14.15 196.07 12.29L196.07 12.29L196.07 8.33L194.11 8.33L194.11 7L196.07 7L196.07 4.48L197.64 4.48L197.64 7L200.10 7L200.10 8.33ZM206.50 6.85L206.50 6.85Q207.75 6.85 208.40 7.62L208.40 7.62L208.40 7.62Q209.06 8.39 209.06 10.05L209.06 10.05L209.06 14L207.49 14L207.49 10.33L207.49 10.33Q207.49 9.53 207.40 9.09L207.40 9.09L207.40 9.09Q207.31 8.64 207.04 8.41L207.04 8.41L207.04 8.41Q206.77 8.19 206.22 8.19L206.22 8.19L206.22 8.19Q205.56 8.19 205.13 8.54L205.13 8.54L205.13 8.54Q204.69 8.89 204.47 9.34L204.47 9.34L204.47 14L202.90 14L202.90 9.17L202.90 7L204.06 7L204.06 7Q204.09 7.07 204.16 7.31L204.16 7.31L204.16 7.31Q204.22 7.55 204.32 7.84L204.32 7.84L204.32 7.84Q204.68 7.36 205.23 7.10L205.23 7.10L205.23 7.10Q205.79 6.85 206.50 6.85L206.50 6.85ZM214.58 6.83L214.58 6.83Q216.08 6.83 216.87 7.82L216.87 7.82L216.87 7.82Q217.67 8.81 217.67 10.51L217.67 10.51L217.67 10.51Q217.67 10.81 217.66 10.95L217.66 10.95L212.84 10.95L212.84 10.95Q212.91 11.96 213.35 12.38L213.35 12.38L213.35 12.38Q213.79 12.81 214.55 12.81L214.55 12.81L214.55 12.81Q215.60 12.81 216.13 11.94L216.13 11.94L217.46 12.67L217.46 12.67Q217.00 13.41 216.22 13.78L216.22 13.78L216.22 13.78Q215.43 14.15 214.54 14.15L214.54 14.15L214.54 14.15Q213.61 14.15 212.86 13.76L212.86 13.76L212.86 13.76Q212.11 13.37 211.67 12.54L211.67 12.54L211.67 12.54Q211.23 11.72 211.23 10.49L211.23 10.49L211.23 10.49Q211.23 9.24 211.68 8.42L211.68 8.42L211.68 8.42Q212.13 7.60 212.88 7.22L212.88 7.22L212.88 7.22Q213.64 6.83 214.58 6.83L214.58 6.83ZM212.88 9.74L216.08 9.74L216.08 9.74Q216.01 8.96 215.64 8.56L215.64 8.56L215.64 8.56Q215.26 8.16 214.55 8.16L214.55 8.16L214.55 8.16Q213.88 8.16 213.44 8.53L213.44 8.53L213.44 8.53Q213.01 8.89 212.88 9.74L212.88 9.74ZM224.97 8.22L224.97 8.22Q224.29 8.22 223.82 8.53L223.82 8.53L223.82 8.53Q223.34 8.83 223.13 9.23L223.13 9.23L223.13 12.67L225.34 12.67L225.34 14L219.84 14L219.84 12.67L221.55 12.67L221.55 8.33L219.84 8.33L219.84 7L222.71 7L222.98 7.85L222.98 7.85Q223.36 7.36 223.93 7.10L223.93 7.10L223.93 7.10Q224.50 6.83 225.25 6.83L225.25 6.83L225.25 6.83Q225.92 6.83 226.45 7.10L226.45 7.10L225.99 8.44L225.99 8.44Q225.92 8.37 225.65 8.29L225.65 8.29L225.65 8.29Q225.37 8.22 224.97 8.22L224.97 8.22Z"></path></g></svg>