<svg data-v-423bf9ae="" xmlns="http://www.w3.org/2000/svg" viewBox="0 0 135 95" class="iconLeftSlogan"><g data-v-423bf9ae="" id="8f1d1be9-29f5-4b3a-a2e6-8ffbc8423e17" transform="matrix(1.35951636562449,0,0,1.35951636562449,-2.5437930622770466,-22.039874668202216)" stroke="none" fill="black"><switch><g><path d="M70.1 46.8h-2.4c-.2 0-.3-.2-.3-.3l.8-5.7c.2-1.5-1.7-2.3-2.6-1.1l-8.1 11.2c-.7 1 0 2.3 1.2 2.3H61c.2 0 .3.2.3.3l-.8 5.7c-.2 1.5 1.7 2.3 2.6 1.1l8.1-11.2c.8-1 .1-2.3-1.1-2.3z"></path><path d="M94.7 43.2l-6-.9c-.8-1.8-1-2.3-1.7-4.2l3.7-4.9c1-1.3.8-3.1-.3-4.3l-5-5c-1.2-1.2-3-1.3-4.3-.3l-4.9 3.7c-1.8-.8-2.3-1-4.2-1.7l-.9-6c-.2-1.6-1.6-2.8-3.2-2.8h-7c-1.6 0-3 1.2-3.2 2.8l-.9 6c-1.8.8-2.3 1-4.2 1.7l-4.9-3.7c-1.3-1-3.1-.8-4.3.3l-5 5c-1.2 1.2-1.3 3-.3 4.3l3.7 4.9c-.8 1.8-1 2.3-1.7 4.2l-6 .9c-1.6.2-2.8 1.6-2.8 3.2v7c0 1.6 1.2 3 2.8 3.2l6 .9c.8 1.8 1 2.3 1.7 4.2l-3.7 4.9c-1 1.3-.8 3.1.3 4.3l5 5c1.2 1.2 3 1.3 4.3.3l4.9-3.7c1.8.8 2.3 1 4.2 1.7l.9 6c.2 1.6 1.6 2.8 3.2 2.8h7c1.6 0 3-1.2 3.2-2.8l.9-6c1.8-.8 2.3-1 4.2-1.7l4.9 3.7c1.3 1 3.1.8 4.3-.3l5-5c1.2-1.2 1.3-3 .3-4.3L87 61.7c.8-1.8 1-2.3 1.7-4.1l6.1-.9c1.6-.2 2.8-1.6 2.8-3.2v-7c-.1-1.6-1.3-3-2.9-3.3zM64.4 65.5c-8.6 0-15.5-7-15.5-15.5 0-8.6 7-15.5 15.5-15.5s15.5 7 15.5 15.5c0 8.6-7 15.5-15.5 15.5zM26.9 30.9H12.2c-1.9 0-3.5 1.6-3.5 3.5s1.6 3.5 3.5 3.5h14.7c1.9 0 3.5-1.6 3.5-3.5s-1.5-3.5-3.5-3.5zM24.3 50c0-1.9-1.6-3.5-3.5-3.5H6c-1.9 0-3.5 1.6-3.5 3.5s1.6 3.5 3.5 3.5h14.7c2 0 3.6-1.6 3.6-3.5zM26.9 62H12.2c-1.9 0-3.5 1.6-3.5 3.5s1.6 3.5 3.5 3.5h14.7c1.9 0 3.5-1.6 3.5-3.5.1-1.9-1.5-3.5-3.5-3.5z"></path></g></switch></g></svg>